<svg
  xmlns="http://www.w3.org/2000/svg"
  viewBox="0 0 512 512"
  fill="none"
>
  <!-- Left page -->
  <path
    d="M64 96c64-32 128-32 192 0v288c-64-32-128-32-192 0V96z"
    fill="#E5E7EB"
    stroke="#1F2937"
    stroke-width="12"
    stroke-linejoin="round"
  />

  <!-- Right page -->
  <path
    d="M256 96c64-32 128-32 192 0v288c-64-32-128-32-192 0V96z"
    fill="#E5E7EB"
    stroke="#1F2937"
    stroke-width="12"
    stroke-linejoin="round"
  />

  <!-- Spine -->
  <line
    x1="256"
    y1="96"
    x2="256"
    y2="384"
    stroke="#1F2937"
    stroke-width="10"
  />

  <!-- Page lines (left) -->
  <g stroke="#9CA3AF" stroke-width="6" stroke-linecap="round">
    <line x1="96" y1="150" x2="224" y2="150" />
    <line x1="96" y1="190" x2="224" y2="190" />
    <line x1="96" y1="230" x2="224" y2="230" />
  </g>

  <!-- Page lines (right) -->
  <g stroke="#9CA3AF" stroke-width="6" stroke-linecap="round">
    <line x1="288" y1="150" x2="416" y2="150" />
    <line x1="288" y1="190" x2="416" y2="190" />
    <line x1="288" y1="230" x2="416" y2="230" />
  </g>
</svg>
